<?xml version="1.0" encoding="utf-8"?>
<!-- Generator: Adobe Illustrator 16.0.0, SVG Export Plug-In . SVG Version: 6.00 Build 0)  -->
<!DOCTYPE svg PUBLIC "-//W3C//DTD SVG 1.1//EN" "http://www.w3.org/Graphics/SVG/1.1/DTD/svg11.dtd">
<svg version="1.1" id="Layer_1" xmlns="http://www.w3.org/2000/svg" xmlns:xlink="http://www.w3.org/1999/xlink" x="0px" y="0px"
	 width="160px" height="150px" viewBox="0 0 160 150" enable-background="new 0 0 160 150" xml:space="preserve">
<ellipse fill="#335B5A" cx="47.996" cy="118.525" rx="31.787" ry="26.988"/>
<path fill="#335B5A" d="M1.889,145.319c0,0,5.207-11.553,21.264-11.553c16.056,0,22.131,11.553,22.131,11.553H1.889z"/>
<ellipse fill="#335B5A" cx="91.481" cy="92.04" rx="57.752" ry="56.542"/>
<path fill="#169690" d="M130.416,133.818c11.988-10.42,19.549-25.615,19.549-42.546c0-31.417-26.013-56.886-58.102-56.886
	c-32.089,0-58.103,25.469-58.103,56.886c0,16.903,7.538,32.076,19.492,42.495c-5.878,2.285-11.525,6.532-13.457,14.391h31.04
	c0,0,0.083-9.59,0.083-17.809v-13.982c0-10.435,8.459-18.895,18.895-18.895h4.157c10.436,0,18.894,8.46,18.894,18.895v13.982
	c0,8.219,0.027,17.809,0.027,17.809h30.854C141.827,140.357,136.247,136.115,130.416,133.818z"/>
<ellipse fill="#335B5A" cx="91.56" cy="53.415" rx="29.185" ry="21.032"/>
<path fill="#69C9CA" d="M91.557,0.527c-26.391,0-47.787,17.86-47.787,39.892c0,16.893,12.583,31.322,30.345,37.141
	c-0.072-0.396-0.122-0.799-0.122-1.21V59.178c0-4.377,4.251-7.926,9.495-7.926h16.141c5.242,0,9.493,3.548,9.493,7.926V76.35
	c0,0.411-0.049,0.814-0.12,1.21c17.763-5.819,30.345-20.248,30.345-37.141C139.347,18.387,117.953,0.527,91.557,0.527z"/>
<path fill="#FFFFFF" d="M76.974,53.415l3.35-6.919l3.165,4.756C83.489,51.252,78.24,51.829,76.974,53.415z"/>
<path fill="#FFFFFF" d="M106.117,53.415l-3.351-6.919l-3.164,4.756C99.602,51.252,104.85,51.829,106.117,53.415z"/>
<polygon fill="#2F4C4C" stroke="#2F4C4C" stroke-width="2.3192" stroke-linecap="round" stroke-linejoin="round" stroke-miterlimit="10" points="
	91.558,47.096 87.648,43.325 83.738,39.555 91.558,39.555 99.38,39.555 95.47,43.325 "/>
<path fill="#434748" d="M74.59,2.859L47.927,3.514l-6.489,19.79C41.438,23.304,67.84,27.857,74.59,2.859z"/>
<path fill="#434748" d="M108.548,2.859l26.663,0.655l6.49,19.79C141.702,23.304,115.299,27.857,108.548,2.859z"/>
<path fill="#434748" d="M78.698,32.616c0,0-3.009,4.832-6.722,4.832s-6.721-4.832-6.721-4.832h6.721H78.698z"/>
<path fill="#434748" d="M117.867,32.616c0,0-3.009,4.832-6.721,4.832c-3.714,0-6.722-4.832-6.722-4.832h6.722H117.867z"/>
<path fill="#169690" d="M119.787,29.067c0,0.743-0.602,1.345-1.344,1.345c0,0-30.725,0-26.116,0s-29.088,0-29.088,0
	c-0.743,0-1.344-0.602-1.344-1.345l0,0c0-0.742,0.602-1.344,1.344-1.344c0,0,24.671,0,29.088,0c4.416,0,26.116,0,26.116,0
	C119.185,27.723,119.787,28.326,119.787,29.067L119.787,29.067z"/>
</svg>
