<?xml version="1.0" encoding="utf-8"?>
<!-- Generator: Adobe Illustrator 16.0.0, SVG Export Plug-In . SVG Version: 6.00 Build 0)  -->
<!DOCTYPE svg PUBLIC "-//W3C//DTD SVG 1.1//EN" "http://www.w3.org/Graphics/SVG/1.1/DTD/svg11.dtd">
<svg version="1.1" id="Layer_1" xmlns="http://www.w3.org/2000/svg" xmlns:xlink="http://www.w3.org/1999/xlink" x="0px" y="0px"
	 width="160px" height="150px" viewBox="0 0 160 150" enable-background="new 0 0 160 150" xml:space="preserve">
<path fill="#F59698" stroke="#325C5B" stroke-width="3.5" stroke-miterlimit="10" d="M47.342,91.931
	c-17.205,0-31.152,11.841-31.152,26.45c0,5.91,2.284,11.365,6.143,15.769c-10.371,2.594-13.967,10.489-13.967,10.489h35.299
	c1.207,0.122,2.432,0.19,3.678,0.19c17.204,0,31.152-11.841,31.152-26.448C78.494,103.771,64.546,91.931,47.342,91.931z"/>
<ellipse fill="#F59698" stroke="#325C5B" stroke-width="3.5" stroke-miterlimit="10" cx="89.96" cy="92.422" rx="54.802" ry="53.655"/>
<path fill="#F59698" stroke="#14958F" stroke-width="3.5" stroke-miterlimit="10" d="M128.117,133.367
	c11.748-10.211,19.161-25.104,19.161-41.697c0-30.79-25.496-55.751-56.944-55.751c-31.449,0-56.944,24.961-56.944,55.751
	c0,16.567,7.387,31.438,19.104,41.647c-5.76,2.24-11.297,6.403-13.189,14.104h30.421c0,0,0.082-9.398,0.082-17.452v-13.703
	c0-10.227,8.29-18.519,18.519-18.519h4.072c10.229,0,18.519,8.292,18.519,18.519v13.703c0,8.054,0.026,17.452,0.026,17.452h30.237
	C139.302,139.776,133.833,135.619,128.117,133.367z"/>
<ellipse fill="#F59698" stroke="#14958F" stroke-width="3.5" stroke-miterlimit="10" cx="90.037" cy="54.568" rx="28.602" ry="20.613"/>
<path fill="#F59698" stroke="#006666" stroke-width="3.5" stroke-miterlimit="10" d="M90.035,2.735
	c-25.865,0-46.834,17.504-46.834,39.098c0,16.555,12.33,30.696,29.74,36.398c-0.071-0.389-0.119-0.783-0.119-1.187V62.913
	c0-4.29,4.165-7.767,9.305-7.767h15.818c5.139,0,9.304,3.477,9.304,7.767v14.132c0,0.403-0.048,0.798-0.119,1.187
	c17.407-5.703,29.741-19.843,29.741-36.398C136.871,20.239,115.902,2.735,90.035,2.735z"/>
<path fill="#F59698" stroke="#006666" stroke-width="3.5" stroke-miterlimit="10" d="M73.406,5.021l-26.13,0.643L40.914,25.06
	C40.914,25.06,66.791,29.519,73.406,5.021z"/>
<path fill="#99FFFF" d="M75.742,55.917l3.283-6.781l3.102,4.661C82.127,53.797,76.982,54.363,75.742,55.917z"/>
<path fill="#99FFFF" d="M104.304,55.917l-3.283-6.781l-3.102,4.661C97.919,53.797,103.062,54.363,104.304,55.917z"/>
<path fill="#F59698" stroke="#14958F" stroke-width="3.5" stroke-miterlimit="10" d="M136.871,41.833
	c0.55-20.643-20.724-38.596-45.452-39.255c0,0-9.916,12.464,0.705,31.492C106.574,59.957,136.871,41.833,136.871,41.833z"/>
<path fill="#F59698" stroke="#006666" stroke-width="3.5" stroke-miterlimit="10" d="M106.686,5.021l26.131,0.643l6.361,19.396
	C139.178,25.06,113.303,29.519,106.686,5.021z"/>
<path fill="#14958F" d="M117.701,32.055c0,0.728-0.59,1.318-1.316,1.318c0,0-30.114,0-25.597,0c4.517,0-28.507,0-28.507,0
	c-0.728,0-1.318-0.59-1.318-1.318l0,0c0-0.727,0.591-1.317,1.318-1.317c0,0,24.179,0,28.507,0s25.597,0,25.597,0
	C117.111,30.738,117.701,31.328,117.701,32.055L117.701,32.055z"/>
<polygon fill="#2F4C4C" stroke="#2F4C4C" stroke-width="2.0091" stroke-linecap="round" stroke-linejoin="round" stroke-miterlimit="10" points="
	89.961,51.073 86.573,47.807 83.184,44.54 89.961,44.54 96.736,44.54 93.349,47.807 "/>
<path fill="#2F4C4C" stroke="#2F4C4C" stroke-width="1.985" stroke-linecap="round" stroke-linejoin="round" stroke-miterlimit="10" d="
	M76.568,36.772c0,0-2.914,4.678-6.509,4.678c-3.596,0-6.508-4.678-6.508-4.678l6.508-0.001L76.568,36.772z"/>
<path fill="#2F4C4C" stroke="#2F4C4C" stroke-width="1.985" stroke-linecap="round" stroke-linejoin="round" stroke-miterlimit="10" d="
	M115.652,36.772c0,0-2.916,4.678-6.51,4.678c-3.596,0-6.508-4.678-6.508-4.678l6.508-0.001L115.652,36.772z"/>
<path fill="#325C5B" d="M90.141,33.373c6.392,0,26.244,0,26.244,0c0.727,0,1.316-0.59,1.316-1.318c0-0.727-0.59-1.317-1.316-1.317
	c0,0-21.921,0-27.429,0C89.308,31.6,89.701,32.479,90.141,33.373z"/>
<path fill="#F59698" stroke="#14958F" stroke-width="3.5" stroke-miterlimit="10" d="M145.613,82.838
	c-4.238-0.831-16.922-0.166-20.31,12.865c-2.537,9.756,1.775,16.66,8.293,21.174c1.517,1.054,3.169,1.77,4.862,2.168
	C146.265,105.998,147.323,92.031,145.613,82.838z"/>
<path fill="#F59698" stroke="#336666" stroke-width="3.5" stroke-miterlimit="10" d="M49.884,89.083
	c-4.34,0.172-7.997-3.205-8.17-7.544s3.204-7.998,7.544-8.169c4.34-0.174,7.998,3.204,8.171,7.543
	C57.6,85.255,54.223,88.911,49.884,89.083z"/>
<circle fill="#F59698" stroke="#14958F" stroke-width="3.5" stroke-miterlimit="10" cx="43.777" cy="94.753" r="2.863"/>
</svg>
