<?xml version="1.0" encoding="utf-8"?>
<!-- Generator: Adobe Illustrator 16.0.0, SVG Export Plug-In . SVG Version: 6.00 Build 0)  -->
<!DOCTYPE svg PUBLIC "-//W3C//DTD SVG 1.1//EN" "http://www.w3.org/Graphics/SVG/1.1/DTD/svg11.dtd">
<svg version="1.1" id="Layer_1" xmlns="http://www.w3.org/2000/svg" xmlns:xlink="http://www.w3.org/1999/xlink" x="0px" y="0px"
	 width="160px" height="150px" viewBox="0 0 160 150" enable-background="new 0 0 160 150" xml:space="preserve">
<g>
	<ellipse fill="#325C5B" cx="48.063" cy="118.552" rx="31.559" ry="26.793"/>
	<path fill="#14958F" d="M129.896,133.733c11.901-10.345,19.41-25.432,19.41-42.242c0-31.191-25.829-56.479-57.688-56.479
		S33.929,60.3,33.929,91.491c0,16.784,7.483,31.849,19.353,42.192c-5.835,2.269-11.444,6.487-13.362,14.287h30.818
		c0,0,0.082-9.521,0.082-17.68v-13.882c0-10.36,8.399-18.761,18.761-18.761h4.127c10.361,0,18.759,8.4,18.759,18.761v13.882
		c0,8.158,0.026,17.68,0.026,17.68h30.636C141.227,140.227,135.685,136.016,129.896,133.733z"/>
	<ellipse fill="#325C5B" cx="91.317" cy="53.905" rx="28.976" ry="20.883"/>
	<path fill="#4EC3CC" d="M91.314,1.395c-26.203,0-47.446,17.733-47.446,39.608c0,16.771,12.492,31.098,30.129,36.874
		c-0.071-0.393-0.121-0.793-0.121-1.201v-17.05c0-4.345,4.22-7.869,9.427-7.869h16.024c5.207,0,9.426,3.524,9.426,7.869v17.05
		c0,0.408-0.048,0.809-0.12,1.201c17.635-5.776,30.129-20.103,30.129-36.874C138.763,19.127,117.521,1.395,91.314,1.395z"/>
	<path fill="#14958F" d="M74.469,3.71L47.997,4.361l-6.443,19.649C41.553,24.011,67.767,28.529,74.469,3.71z"/>
	<path fill="#434748" d="M108.184,3.71l26.473,0.651l6.444,19.649C141.101,24.011,114.887,28.529,108.184,3.71z"/>
	<path fill="#4EC3CC" d="M78.546,33.255h-6.673H65.2c0,0,0.556,0.89,1.48,1.903h10.384C77.99,34.145,78.546,33.255,78.546,33.255z"
		/>
	<path fill="#434748" d="M66.681,35.158c1.223,1.339,3.093,2.894,5.192,2.894s3.969-1.555,5.192-2.894H66.681z"/>
	<path fill="#4EC3CC" d="M117.436,33.255h-6.673h-6.674c0,0,0.557,0.89,1.481,1.903h10.384
		C116.88,34.145,117.436,33.255,117.436,33.255z"/>
	<path fill="#434748" d="M105.57,35.158c1.222,1.339,3.094,2.894,5.192,2.894s3.969-1.555,5.191-2.894H105.57z"/>
	<path fill="#14958F" d="M119.344,29.731c0,0.737-0.599,1.335-1.337,1.335c0,0-30.506,0-25.929,0c4.575,0-28.88,0-28.88,0
		c-0.737,0-1.335-0.598-1.335-1.335l0,0c0-0.736,0.598-1.334,1.335-1.334c0,0,24.494,0,28.88,0c4.385,0,25.929,0,25.929,0
		C118.745,28.397,119.344,28.995,119.344,29.731L119.344,29.731z"/>
	<path fill="#FFFFFF" d="M76.835,53.905l3.326-6.869l3.143,4.721C83.304,51.757,78.092,52.332,76.835,53.905z"/>
	<path fill="#FFFFFF" d="M105.77,53.905l-3.325-6.869l-3.143,4.721C99.302,51.757,104.512,52.332,105.77,53.905z"/>
	
		<polygon fill="#2F4C4C" stroke="#2F4C4C" stroke-width="2.3026" stroke-linecap="round" stroke-linejoin="round" stroke-miterlimit="10" points="
		91.317,47.631 87.435,43.887 83.551,40.145 91.317,40.145 99.081,40.145 95.198,43.887 	"/>
	<path fill="#325C5B" d="M8.577,145.153c0,0,5.17-11.47,21.111-11.47c15.942,0,21.974,11.47,21.974,11.47H8.577z"/>
	<ellipse fill="#325C5B" cx="91.239" cy="92.254" rx="57.34" ry="56.139"/>
	<path fill="#14958F" d="M129.896,133.733c11.901-10.345,19.41-25.432,19.41-42.242c0-31.191-25.829-56.479-57.688-56.479
		S33.929,60.3,33.929,91.491c0,16.784,7.483,31.849,19.353,42.192c-5.835,2.269-11.444,6.487-13.362,14.287h30.818
		c0,0,0.082-9.521,0.082-17.68v-13.882c0-10.36,8.399-18.761,18.761-18.761h4.127c10.361,0,18.759,8.4,18.759,18.761v13.882
		c0,8.158,0.026,17.68,0.026,17.68h30.636C141.227,140.227,135.685,136.016,129.896,133.733z"/>
	<path fill="#4EC3CC" d="M78.546,33.255h-6.673H65.2c0,0,0.556,0.89,1.48,1.903h10.384C77.99,34.145,78.546,33.255,78.546,33.255z"
		/>
	<path fill="#4EC3CC" d="M117.436,33.255h-6.673h-6.674c0,0,0.557,0.89,1.481,1.903h10.384
		C116.88,34.145,117.436,33.255,117.436,33.255z"/>
	<path fill="#4EC3CC" d="M78.457,33.299l-6.674-0.001l-6.673,0.001c0,0,0.557,0.89,1.481,1.904h10.384
		C77.901,34.189,78.457,33.299,78.457,33.299z"/>
	<path fill="#4EC3CC" d="M117.347,33.299l-6.675-0.001l-6.673,0.001c0,0,0.557,0.89,1.481,1.904h10.384
		C116.79,34.189,117.347,33.299,117.347,33.299z"/>
	<ellipse fill="#325C5B" cx="91.317" cy="53.905" rx="28.976" ry="20.883"/>
	<path fill="#66CCCC" d="M91.314,1.395c-26.203,0-47.446,17.733-47.446,39.608c0,16.771,12.492,31.098,30.129,36.874
		c-0.071-0.393-0.121-0.793-0.121-1.201v-17.05c0-4.345,4.22-7.869,9.427-7.869h16.024c5.207,0,9.426,3.524,9.426,7.869v17.05
		c0,0.408-0.048,0.809-0.12,1.201c17.635-5.776,30.129-20.103,30.129-36.874C138.763,19.127,117.521,1.395,91.314,1.395z"/>
	<path fill="#14958F" d="M74.469,3.71L47.997,4.361l-6.443,19.649C41.553,24.011,67.767,28.529,74.469,3.71z"/>
	<path fill="#FFFFFF" d="M76.835,53.905l3.326-6.869l3.143,4.721C83.304,51.757,78.092,52.332,76.835,53.905z"/>
	<path fill="#FFFFFF" d="M105.77,53.905l-3.325-6.869l-3.143,4.721C99.302,51.757,104.512,52.332,105.77,53.905z"/>
	<path fill="#009999" d="M138.773,40.467c0.557-20.913-19.301-38.405-44.353-39.072c0,0-10.048,12.626,0.713,31.903
		C109.773,59.523,138.773,40.467,138.773,40.467z"/>
	<path fill="#434748" d="M108.184,3.71l26.473,0.651l6.444,19.649C141.101,24.011,114.887,28.529,108.184,3.71z"/>
	<path fill="#14958F" d="M119.344,29.731c0,0.737-0.599,1.335-1.337,1.335c0,0-30.506,0-25.929,0c4.575,0-28.88,0-28.88,0
		c-0.737,0-1.335-0.598-1.335-1.335l0,0c0-0.736,0.598-1.334,1.335-1.334c0,0,24.494,0,28.88,0c4.385,0,25.929,0,25.929,0
		C118.745,28.397,119.344,28.995,119.344,29.731L119.344,29.731z"/>
	
		<polygon fill="#2F4C4C" stroke="#2F4C4C" stroke-width="2.0354" stroke-linecap="round" stroke-linejoin="round" stroke-miterlimit="10" points="
		91.24,48.631 87.809,45.322 84.373,42.013 91.24,42.013 98.104,42.013 94.671,45.322 	"/>
	
		<path fill="#2F4C4C" stroke="#2F4C4C" stroke-width="2.011" stroke-linecap="round" stroke-linejoin="round" stroke-miterlimit="10" d="
		M77.671,34.51c0,0-2.951,4.739-6.593,4.739c-3.642,0-6.593-4.739-6.593-4.739l6.593,0L77.671,34.51z"/>
	
		<path fill="#2F4C4C" stroke="#2F4C4C" stroke-width="2.011" stroke-linecap="round" stroke-linejoin="round" stroke-miterlimit="10" d="
		M117.267,34.51c0,0-2.954,4.739-6.595,4.739c-3.642,0-6.593-4.739-6.593-4.739l6.593,0L117.267,34.51z"/>
	<path fill="#325C5B" d="M93.974,31.066c6.476,0,24.033,0,24.033,0c0.738,0,1.337-0.598,1.337-1.335
		c0-0.736-0.599-1.334-1.337-1.334c0,0-19.652,0-25.231,0C93.131,29.271,93.529,30.16,93.974,31.066z"/>
	<path fill="#325C5B" d="M148.595,83.568c-4.292-0.842-17.144-0.168-20.575,13.034c-2.57,9.883,1.798,16.877,8.4,21.45
		c1.537,1.068,3.211,1.793,4.927,2.196C149.253,107.031,150.326,92.883,148.595,83.568z"/>
	<circle fill="#325C5B" cx="50.322" cy="80.912" r="7.966"/>
	<circle fill="#325C5B" cx="44.452" cy="94.615" r="2.899"/>
</g>
</svg>
