<?xml version="1.0" encoding="utf-8"?>
<!-- Generator: Adobe Illustrator 16.0.0, SVG Export Plug-In . SVG Version: 6.00 Build 0)  -->
<!DOCTYPE svg PUBLIC "-//W3C//DTD SVG 1.1//EN" "http://www.w3.org/Graphics/SVG/1.1/DTD/svg11.dtd">
<svg version="1.1" id="Layer_1" xmlns="http://www.w3.org/2000/svg" xmlns:xlink="http://www.w3.org/1999/xlink" x="0px" y="0px"
	 width="424.742px" height="76.289px" viewBox="0 0 424.742 76.289" enable-background="new 0 0 424.742 76.289"
	 xml:space="preserve">
<g>
	<path fill="#333333" d="M27.337,45.737c2.888-0.456,6.081-0.76,9.349-0.76c9.424,0,14.973,3.269,14.973,9.729
		c0,5.548-4.332,7.524-4.332,7.524s-4.104-5.32-17.329-5.32c-13.148,0-18.089,1.672-18.089,1.672V21.188
		c-2.888,2.052-4.56,4.332-5.472,6.384c0,0-2.964-0.38-2.964-5.016c0-7.98,9.425-17.937,30.174-17.937
		c12.845,0,18.469,3.572,18.469,10.489c0,5.396-4.56,6.764-4.56,6.764s-2.888-5.776-14.593-5.776c-2.052,0-3.876,0.076-5.625,0.228
		v11.629c3.116-0.684,6.688-1.216,10.489-1.216c6.536,0,9.577,2.356,9.577,6.84c0,4.332-3.648,6.081-3.648,6.081
		s-2.432-3.269-10.944-3.269c-1.9,0-3.725,0.152-5.473,0.304V45.737z"/>
	<path fill="#333333" d="M69.82,26.888c0,0,3.192-7.904,11.4-7.904c5.776,0,8.741,3.344,9.577,7.676c0,0,2.964-7.676,11.173-7.676
		c7.144,0,10.564,4.56,10.564,11.781c0,4.712-1.292,10.336-1.292,15.125c0,2.128,1.064,3.344,3.344,3.344
		c3.953,0,4.94-4.56,4.94-4.56s1.9,0.684,1.9,4.484c0,5.472-5.396,10.032-12.085,10.032c-7.372,0-11.856-4.636-11.856-12.389
		c0-4.18,1.14-9.044,1.14-13.301c0-2.356-1.064-3.344-2.964-3.344c-2.584,0-4.56,1.976-4.56,6.08v22.117H77.117V33.5
		c0-2.28-1.064-3.344-2.888-3.344c-2.584,0-4.332,1.976-4.332,6.08v22.117H55.912V21.188L69.82,19.44V26.888z"/>
	<path fill="#333333" d="M132.899,11.003c0,3.8-3.041,6.537-7.296,6.537c-4.256,0-7.221-2.736-7.221-6.537s2.964-6.536,7.221-6.536
		C129.859,4.467,132.899,7.203,132.899,11.003z M132.443,19.44v25.689c0,2.584,0.684,4.028,3.192,4.028
		c3.952,0,5.092-4.484,5.092-4.484s1.9,0.684,1.9,4.408c0,5.472-5.473,10.108-12.085,10.108c-8.132,0-11.856-5.852-11.856-15.049
		V21.188L132.443,19.44z"/>
	<path fill="#333333" d="M173.635,45.813c0,6.84-6.232,13.529-18.165,13.529c-11.172,0-16.645-8.513-16.645-23.485
		c0-18.545,5.168-31.314,17.785-31.314c8.285,0,11.781,5.548,11.781,13.833c0,10.108-5.472,21.053-14.365,26.449
		c1.444,3.344,3.8,4.636,7.448,4.636c7.296,0,10.185-6.004,10.792-7.98C172.267,41.481,173.635,42.469,173.635,45.813z
		 M152.582,34.033c0,1.216,0,2.432,0.076,3.496c5.548-4.104,7.98-12.92,7.98-18.773c0-3.268-0.608-5.396-2.584-5.396
		C153.875,13.36,152.582,23.772,152.582,34.033z"/>
	<path fill="#333333" d="M205.783,46.954c4.864-1.444,7.524-4.028,8.056-5.473c0,0,1.672,1.216,1.672,4.333
		c0,4.408-3.952,7.524-9.957,9.196c-1.216,9.805-7.904,18.089-20.217,18.089c-7.904,0-12.464-4.028-12.464-10.108
		c0-3.496,1.596-6.232,4.256-8.36c-3.724-1.824-5.776-5.853-5.776-11.857V21.188l13.604-1.748v23.561
		c0,3.192,1.216,4.256,3.116,4.256c1.824,0,4.028-1.672,4.028-5.776V21.188l13.681-1.748V46.954z M192.026,56.378
		c-7.676,1.14-10.185,3.648-10.185,6.688c0,2.736,1.976,3.496,3.876,3.496C190.05,66.562,191.722,62.306,192.026,56.378z"/>
	<path fill="#333333" d="M236.56,20.352c-3.648,2.28-5.929,5.016-6.84,7.22c0,0-2.812-0.988-2.812-5.244
		c0-7.98,9.881-17.709,30.402-17.709c14.668,0,21.585,5.625,21.585,14.289c0,5.245-3.496,9.121-8.36,11.477
		c5.016,1.216,9.652,4.94,9.652,12.009c0,9.805-10.108,17.557-26.221,17.557c-10.336,0-17.405-2.584-17.405-2.584V20.352z
		 M254.497,50.297c6.157,0,9.653-2.356,9.653-7.068c0-4.104-2.508-6.384-9.349-6.384h-3.04v13.453H254.497z M254.725,28.712
		c5.625,0,8.741-2.356,8.741-7.068c0-3.724-2.736-6.384-7.98-6.384c-1.292,0-2.508,0.076-3.648,0.152v13.301H254.725z"/>
	<path fill="#333333" d="M299.032,40.113c0.912-0.988,2.584-1.976,4.408-2.964c-0.228-1.52-0.38-3.268-0.38-5.092
		c0-7.373,3.572-13.225,9.272-13.225c4.864,0,7.98,3.496,7.98,9.576c0,5.853-2.888,9.5-6.612,12.237
		c1.216,1.9,3.116,3.344,6.004,3.344c4.256,0,6.081-2.508,6.081-2.508s1.216,0.988,1.216,3.269c0,4.028-3.876,6.46-8.816,6.46
		c-4.636,0-8.968-2.052-11.78-6.308c-4.104,2.204-7.524,4.256-7.524,7.752v5.7h-13.757V21.188l13.909-1.748V40.113z"/>
	<path fill="#333333" d="M338.095,11.003c0,3.8-3.041,6.537-7.296,6.537c-4.256,0-7.221-2.736-7.221-6.537s2.964-6.536,7.221-6.536
		C335.055,4.467,338.095,7.203,338.095,11.003z M337.639,19.44v25.689c0,2.584,0.684,4.028,3.192,4.028
		c3.952,0,5.092-4.484,5.092-4.484s1.9,0.684,1.9,4.408c0,5.472-5.473,10.108-12.085,10.108c-8.132,0-11.856-5.852-11.856-15.049
		V21.188L337.639,19.44z"/>
	<path fill="#333333" d="M376.019,31.145c0,7.373-5.928,11.173-10.184,11.173c-1.597,0-2.965-0.608-2.965-0.608
		s2.204-3.952,2.204-8.208c0-3.116-1.216-5.092-3.04-5.092c-3.116,0-4.94,4.636-4.94,9.349c0,7.752,3.952,11.401,10.108,11.401
		c8.816,0,12.617-5.701,13.301-7.677c0.076,0,1.521,1.14,1.521,4.028c0,6.917-8.589,13.757-20.293,13.757
		c-10.717,0-17.709-7.145-17.709-19.457c0-12.161,8.208-20.597,19.153-20.597C371.383,19.212,376.019,24.228,376.019,31.145z"/>
	<path fill="#333333" d="M394.106,26.888c0.684-1.52,4.104-7.828,12.084-7.828c7.221,0,10.565,4.712,10.565,11.172
		c0,6.537-4.181,10.869-11.021,13.301c1.293,4.18,3.648,5.853,6.309,5.853c6.005,0,8.74-5.853,9.349-7.98c0,0,1.672,1.14,1.672,4.94
		c0,6.917-6.004,13.149-15.049,13.149c-7.296,0-11.856-5.396-13.908-12.845v11.705h-13.985V6.899l13.985-1.748V26.888z
		 M394.106,40.113c9.044-0.608,12.009-3.724,12.009-7.372c0-2.432-1.368-3.876-3.801-3.876
		C398.286,28.864,394.713,32.893,394.106,40.113z"/>
</g>
</svg>
